<?xml version="1.0" standalone="no"?>
<!DOCTYPE svg PUBLIC "-//W3C//DTD SVG 20010904//EN"
 "http://www.w3.org/TR/2001/REC-SVG-20010904/DTD/svg10.dtd">
<svg version="1.0" xmlns="http://www.w3.org/2000/svg"
 width="772.000000pt" height="772.000000pt" viewBox="0 0 772.000000 772.000000"
 preserveAspectRatio="xMidYMid meet">
<metadata>
Created by potrace 1.14, written by Peter Selinger 2001-2017
</metadata>
<g transform="translate(0.000000,772.000000) scale(0.100000,-0.100000)"
fill="#000000" stroke="none">
<path d="M2138 7685 c-16 -16 -192 -38 -264 -32 -33 2 -69 10 -81 17 -30 19
-52 7 -46 -24 3 -14 9 -24 13 -21 7 4 35 -49 35 -67 0 -3 3 -9 7 -13 4 -4 4
-13 2 -20 -3 -7 -1 -16 5 -20 6 -3 11 -17 11 -31 0 -13 4 -24 8 -24 5 0 9 -6
9 -12 1 -13 8 -85 20 -183 12 -107 4 -252 -15 -260 -7 -3 -11 -9 -7 -15 3 -5
-7 -16 -23 -24 -16 -8 -34 -22 -41 -30 -7 -9 -16 -14 -20 -12 -4 3 -15 -8 -25
-23 -13 -18 -38 -34 -75 -47 -103 -35 -623 -21 -647 17 -3 5 -17 9 -31 9 -24
0 -25 -2 -19 -37 4 -21 8 -48 9 -60 1 -13 5 -23 9 -23 3 0 5 -54 4 -120 -2
-90 1 -120 10 -124 8 -3 16 -1 19 4 5 8 46 22 100 35 6 1 17 5 25 8 35 13 158
40 192 41 20 0 34 4 32 8 -3 5 10 9 28 9 18 1 51 3 73 4 71 4 225 -7 219 -16
-3 -5 2 -6 11 -3 16 6 54 -31 55 -54 0 -7 17 -19 38 -27 55 -22 65 -54 59
-183 -7 -142 -13 -187 -37 -262 -11 -34 -20 -72 -20 -84 0 -11 -12 -48 -25
-81 -14 -33 -25 -72 -25 -87 l0 -27 41 14 c23 8 61 15 84 15 l43 0 -3 -381
c-2 -210 -6 -383 -8 -386 -3 -2 -174 82 -381 187 -207 106 -376 188 -376 183
0 -5 51 -34 112 -65 163 -83 470 -242 560 -290 44 -24 81 -52 87 -65 10 -21 6
-25 -75 -65 -89 -44 -137 -85 -183 -153 -47 -69 -97 -177 -130 -281 -17 -54
-35 -105 -40 -113 -8 -12 -33 -11 -173 8 -190 25 -368 40 -368 29 0 -9 16 -12
289 -48 124 -16 229 -34 235 -40 8 -8 2 -52 -30 -195 -3 -11 -9 -58 -14 -104
-9 -87 -17 -101 -57 -101 -12 0 -42 -6 -65 -14 -24 -8 -55 -17 -69 -20 -30 -6
-29 -2 -45 -291 -3 -60 -8 -113 -10 -117 -3 -5 -16 -8 -30 -8 -14 0 -41 -7
-61 -15 -19 -8 -45 -15 -57 -15 -19 -1 -19 -2 -3 -11 11 -7 35 -7 74 0 93 18
86 29 77 -126 -10 -189 -10 -204 -1 -484 6 -174 6 -249 -2 -253 -7 -5 -7 -14
3 -29 8 -12 16 -65 20 -122 6 -100 26 -198 64 -311 45 -137 143 -288 213 -330
l48 -29 -226 -225 c-124 -124 -256 -257 -294 -296 -65 -67 -82 -94 -59 -94 10
0 136 122 186 180 12 14 77 77 144 140 68 63 157 149 199 191 70 70 142 119
175 119 8 0 37 16 66 35 29 19 56 35 60 35 4 0 18 11 31 25 31 32 41 31 38 -2
-1 -16 -1 -382 -1 -815 l2 -788 35 0 35 0 0 503 c0 276 2 664 5 861 l6 359 27
32 c15 18 38 40 52 48 50 32 440 429 440 448 0 6 -4 7 -10 4 -13 -8 -13 -2 2
30 6 14 15 25 20 25 4 0 8 6 8 14 0 20 17 29 26 14 4 -7 4 -10 -1 -6 -13 12
-48 -63 -36 -75 8 -8 11 -6 11 6 0 9 5 17 12 17 6 0 8 3 5 7 -8 7 11 33 23 33
9 0 11 -71 14 -514 l1 -309 -53 -109 c-29 -59 -58 -106 -63 -102 -5 3 -9 2 -8
-3 3 -20 -2 -34 -11 -28 -5 3 -11 0 -12 -7 0 -7 -2 -17 -3 -23 -2 -5 -3 -17
-4 -25 -1 -13 -2 -13 -11 0 -8 12 -10 11 -8 -5 2 -11 -27 -81 -63 -155 -68
-137 -102 -217 -159 -370 -18 -47 -39 -98 -47 -115 -9 -16 -24 -75 -33 -130
-10 -55 -25 -127 -33 -160 -18 -68 -36 -245 -44 -418 l-5 -117 1682 0 1683 0
-6 48 c-12 110 -40 269 -63 359 -14 54 -28 114 -31 133 -3 19 -9 40 -13 45 -4
6 -10 28 -14 51 -3 23 -16 65 -29 95 -13 30 -29 76 -36 104 -12 46 -85 199
-111 230 -13 16 -5 35 13 35 18 0 31 -22 82 -130 56 -119 59 -92 4 37 -39 93
-40 96 -22 113 10 10 54 27 98 39 44 12 103 28 130 36 28 7 106 23 175 35 69
11 148 25 175 31 72 14 420 21 480 10 28 -5 86 -17 130 -25 140 -28 148 -29
143 -20 -3 5 -2 357 3 782 l8 774 62 58 62 58 -6 77 c-3 43 -10 82 -16 88 -6
6 -11 25 -11 42 0 32 -5 43 -62 129 -28 41 -44 56 -61 56 -14 0 -32 11 -45 29
-12 17 -35 32 -54 36 -18 4 -36 12 -40 18 -9 15 -86 -5 -206 -54 -53 -22 -99
-39 -103 -39 -23 0 -134 -90 -163 -132 -14 -20 -15 -20 -63 13 -138 94 -431
449 -573 694 -69 119 -90 165 -78 165 10 0 9 3 -2 11 -11 8 -8 9 14 4 16 -3
32 -2 35 3 3 5 65 13 136 16 72 4 360 20 640 36 1077 62 982 63 -696 4 l-185
-7 -22 29 c-12 16 -30 38 -40 50 -9 11 -26 33 -37 49 -11 15 -31 40 -45 54
-14 15 -34 40 -44 56 -11 17 -46 58 -79 92 l-59 61 64 37 c35 20 308 176 608
346 663 378 741 432 185 129 -196 -107 -496 -269 -630 -340 -55 -29 -129 -70
-165 -90 -95 -54 -92 -54 -157 -7 -59 43 -73 51 -162 100 -28 15 -51 32 -51
38 0 6 46 70 103 141 56 72 131 168 167 214 36 46 157 201 270 345 460 587
507 648 468 609 -14 -14 -321 -385 -557 -674 -58 -71 -140 -169 -181 -219 -41
-49 -116 -141 -167 -204 -51 -62 -108 -132 -127 -154 l-34 -40 -49 26 c-105
57 -142 82 -168 109 -14 15 -25 29 -23 30 2 2 34 15 71 31 49 20 86 46 130 89
35 34 107 95 160 136 124 94 204 188 266 310 94 184 138 340 147 530 7 141
-13 314 -47 410 -11 30 -21 61 -21 68 -1 6 -5 12 -10 12 -4 0 -8 11 -8 25 0
14 -4 25 -8 25 -4 0 -8 10 -9 21 -1 12 -13 38 -27 58 -15 20 -26 43 -26 49 0
7 -15 29 -32 48 -18 20 -32 43 -30 51 2 9 -1 12 -7 8 -6 -3 -11 -2 -11 4 0 29
-171 231 -196 231 -6 0 -14 7 -18 15 -3 8 -12 15 -20 15 -7 0 -16 7 -20 15 -3
8 -12 15 -20 15 -8 0 -30 14 -48 30 -18 17 -38 30 -46 30 -7 0 -15 7 -19 16
-3 8 -12 13 -20 10 -7 -3 -16 1 -19 8 -3 8 -12 17 -20 20 -8 3 -12 1 -9 -4 3
-5 -8 -2 -24 8 -17 9 -31 20 -31 25 0 4 -10 7 -23 7 -12 0 -39 9 -60 20 -20
11 -46 20 -58 20 -11 0 -28 4 -37 9 -9 5 -42 12 -72 15 -30 4 -73 11 -95 16
-104 25 -382 3 -535 -43 -47 -14 -101 -28 -120 -32 -19 -4 -37 -11 -40 -15 -3
-4 -30 -19 -60 -34 -66 -32 -93 -47 -114 -65 -9 -7 -16 -10 -16 -7 0 4 -10 -2
-22 -14 -12 -11 -27 -20 -33 -20 -7 0 -37 -25 -69 -55 -31 -30 -61 -55 -67
-55 -6 0 -7 -5 -4 -10 4 -6 3 -10 -2 -9 -16 4 -93 -14 -93 -21 0 -4 -28 -10
-62 -14 -35 -3 -90 -10 -123 -16 -33 -5 -92 -10 -132 -11 l-71 -1 -52 52 c-28
28 -46 48 -39 44 8 -4 9 -3 5 4 -4 7 -16 12 -26 12 -28 0 -32 14 -38 113 -6
112 29 387 50 387 4 0 8 5 8 11 0 5 -6 7 -12 3 -10 -6 -10 -4 0 7 6 7 12 22
12 34 0 11 8 31 17 44 9 14 11 21 4 17 -6 -4 -2 9 9 28 11 20 17 36 14 36 -3
0 2 7 10 16 9 8 14 20 11 25 -7 10 -19 12 -27 4z m219 -1066 c41 0 55 -4 60
-16 4 -9 1 -19 -5 -21 -7 -2 -12 -17 -12 -33 0 -16 -4 -29 -8 -29 -4 0 -8 -8
-9 -17 -1 -10 -15 -56 -32 -102 -114 -306 -67 -711 117 -1007 28 -45 48 -84
46 -87 -3 -3 4 -10 15 -16 11 -7 27 -24 35 -40 16 -30 205 -221 248 -249 71
-47 85 -57 106 -79 13 -13 19 -23 14 -23 -10 0 -36 -58 -49 -109 -6 -26 -16
-37 -38 -44 -17 -6 -32 -13 -35 -17 -3 -4 -29 -15 -57 -24 -29 -10 -55 -22
-58 -27 -15 -24 -84 4 -390 159 l-330 167 2 335 c2 184 3 368 3 409 l1 74 52
-7 c133 -19 130 -19 122 1 -32 80 -64 205 -75 293 -5 36 -14 92 -20 125 -6 35
-8 99 -4 155 l6 95 54 51 c30 29 54 57 54 63 0 15 80 32 114 23 10 -2 43 -4
73 -3z m633 -1647 c0 -11 -37 -32 -44 -25 -15 15 -4 33 19 33 14 0 25 -3 25
-8z m-842 -86 c160 -81 422 -225 443 -244 19 -18 19 -21 4 -36 -9 -9 -21 -16
-27 -16 -14 0 -161 -100 -208 -140 -19 -17 -64 -59 -100 -94 -65 -63 -103 -86
-114 -67 -3 5 -41 12 -84 16 -42 3 -87 8 -99 11 -33 6 -18 29 28 43 57 17 109
51 119 77 5 13 5 37 -1 59 -6 20 -7 49 -4 65 3 16 2 37 -4 48 -6 11 -12 34
-15 53 -2 19 -8 44 -11 56 -9 27 -63 63 -96 63 -22 0 -19 4 24 43 37 34 47 50
47 75 0 18 2 32 5 32 3 0 45 -20 93 -44z m1032 -51 c0 -23 -85 -167 -114 -194
-24 -23 -25 -23 -19 -2 3 11 9 21 14 21 5 0 9 5 9 11 0 6 11 24 25 41 14 16
24 39 24 51 -1 15 -3 17 -6 6 -2 -10 -11 -15 -22 -12 -17 4 -141 -52 -141 -64
0 -4 4 -20 10 -37 5 -17 16 -60 24 -95 15 -62 14 -87 -4 -76 -4 3 -6 -3 -3
-14 3 -13 11 -17 26 -14 18 4 20 3 7 -7 -11 -9 -12 -13 -2 -17 6 -2 10 -9 6
-14 -3 -5 0 -60 6 -121 12 -125 10 -130 -49 -123 -47 6 -52 15 -8 15 49 0 49
-20 -1 311 -11 69 -29 147 -41 174 -11 26 -21 53 -21 60 0 7 53 33 118 58 171
66 162 64 162 42z m-111 -111 c-16 -19 -74 -50 -64 -34 6 10 65 50 74 50 2 0
-2 -7 -10 -16z m-179 -39 c36 -66 65 -186 41 -171 -4 3 -11 22 -14 42 -8 46
-29 94 -42 94 -6 0 -26 -11 -45 -25 -19 -14 -39 -25 -46 -25 -13 0 -54 46 -54
60 0 13 103 61 124 58 11 -2 27 -16 36 -33z m-34 -211 c10 -23 13 -69 12 -151
l-2 -118 -6 120 c-4 79 -11 133 -23 158 -9 21 -11 35 -6 31 6 -3 17 -21 25
-40z m299 -1 c11 -7 45 -27 75 -45 30 -17 66 -39 80 -49 14 -9 59 -38 100 -65
41 -26 77 -52 79 -57 2 -5 12 -18 22 -28 12 -12 14 -19 7 -19 -7 0 -26 16 -41
35 -15 19 -33 35 -39 35 -6 0 -75 32 -154 70 -78 39 -151 70 -161 70 -14 0
-23 11 -31 39 -18 58 -16 65 16 44 15 -10 36 -23 47 -30z m-669 -35 c42 -63
64 -116 64 -154 0 -24 -5 -34 -15 -34 -10 0 -15 11 -15 35 0 19 -4 35 -10 35
-5 0 -10 7 -10 16 0 9 -8 27 -19 40 -17 21 -20 22 -32 8 -7 -9 -15 -25 -16
-37 -4 -27 -12 -34 -22 -19 -5 9 -12 9 -27 -3 -17 -13 -17 -14 -1 -15 21 0 23
-20 1 -20 -29 0 -8 -23 32 -35 25 -7 34 -13 27 -18 -7 -4 -21 -4 -30 1 -16 8
-45 9 -111 4 -13 -1 -26 -11 -31 -25 -5 -13 -21 -37 -35 -54 -19 -22 -23 -33
-14 -36 7 -3 2 -6 -11 -6 -15 -1 -21 -6 -18 -15 4 -9 0 -12 -12 -9 -12 3 -22
-7 -34 -36 -10 -22 -22 -40 -26 -38 -11 3 -91 -85 -91 -100 0 -8 -7 -16 -15
-19 -35 -14 7 -28 110 -38 22 -2 61 -13 88 -25 26 -11 50 -20 53 -20 15 2 113
-45 108 -52 -9 -16 -38 -10 -104 23 -75 36 -102 44 -229 67 -55 10 -97 23 -99
30 -2 7 5 26 17 42 11 15 21 31 21 34 0 3 8 13 18 23 9 11 49 60 87 111 39 51
80 104 93 118 13 14 21 28 18 30 -13 13 -38 -11 -97 -91 -35 -47 -67 -86 -71
-86 -5 0 -8 -6 -8 -13 0 -7 -10 -24 -22 -37 -13 -13 -33 -37 -45 -54 l-23 -30
0 181 0 182 33 -10 c17 -5 57 -7 87 -4 38 4 49 2 35 -4 -16 -8 -11 -10 25 -10
25 -1 56 -4 70 -7 20 -5 22 -4 10 5 -12 9 -9 10 12 5 23 -5 32 0 55 27 34 41
44 51 114 112 30 26 59 52 64 57 16 15 21 12 51 -32z m473 -117 c1 -57 -1
-102 -3 -100 -2 2 -6 58 -9 124 -3 67 -1 111 3 100 5 -11 9 -67 9 -124z m117
91 c-8 -7 -25 8 -37 31 -11 21 -10 21 15 -2 14 -14 24 -26 22 -29z m4 -16 c0
-3 -4 -8 -10 -11 -5 -3 -10 -1 -10 4 0 6 5 11 10 11 6 0 10 -2 10 -4z m50 -36
c0 -5 5 -9 12 -7 12 2 30 -28 43 -73 7 -22 6 -23 -9 -11 -18 15 -21 6 -17 -54
1 -20 -4 -34 -17 -42 -14 -8 -19 -8 -19 0 0 7 -3 54 -8 105 -5 65 -4 92 4 92
6 0 11 -4 11 -10z m758 -15 c3 -19 2 -19 -8 -2 -8 12 -16 15 -23 9 -7 -5 -33
-12 -59 -15 -27 -4 -60 -9 -75 -12 -40 -7 -8 6 62 26 74 21 99 20 103 -6z
m-223 -35 c-11 -5 -30 -9 -42 -9 -13 -1 -23 -6 -23 -12 0 -7 -10 -9 -25 -7
-13 3 -22 2 -20 -3 3 -4 1 -10 -5 -14 -6 -3 -10 3 -10 15 0 13 5 20 13 17 6
-2 26 2 42 9 17 7 44 13 60 13 26 0 27 -2 10 -9z m-1215 -34 c0 -3 -4 -8 -10
-11 -5 -3 -10 -1 -10 4 0 6 5 11 10 11 6 0 10 -2 10 -4z m798 -31 c-3 -3 -9 2
-12 12 -6 14 -5 15 5 6 7 -7 10 -15 7 -18z m-40 -36 c7 -23 11 -44 8 -47 -3
-3 -8 4 -12 14 -3 10 -10 29 -15 42 -11 28 -11 32 -1 32 4 0 13 -19 20 -41z
m554 5 c-6 -14 29 -21 67 -14 40 7 84 -9 100 -37 9 -15 12 -16 20 -4 11 16 34
4 27 -14 -3 -8 2 -19 10 -25 8 -7 14 -21 14 -31 0 -11 5 -19 10 -19 6 0 10 -9
10 -21 0 -11 5 -17 10 -14 6 4 10 -8 10 -29 0 -20 -4 -36 -10 -36 -5 0 -10
-20 -10 -44 0 -25 -4 -48 -10 -51 -5 -3 -10 -15 -10 -26 0 -11 -11 -24 -24
-30 -13 -6 -23 -18 -22 -27 2 -9 -14 -32 -36 -52 l-38 -37 -87 3 c-49 1 -91 3
-95 3 -5 1 -9 9 -9 19 -1 16 -2 16 -6 0 -3 -11 -14 -18 -29 -18 -27 0 -39 9
-67 53 -10 16 -23 25 -29 21 -8 -5 -9 -1 -5 11 8 20 -39 68 -56 58 -6 -4 -7
-1 -2 8 5 7 8 57 6 111 -1 54 2 98 7 98 5 0 15 11 22 25 7 14 19 25 27 25 7 0
13 10 14 23 3 53 5 60 19 64 12 4 12 3 2 -5 -11 -7 -8 -11 9 -15 13 -4 28 -2
33 3 6 6 20 10 33 10 13 0 26 7 29 15 4 8 13 15 21 15 9 0 11 5 7 13 -5 7 2 5
16 -4 14 -9 24 -20 22 -25z m-1151 15 c10 -6 3 -9 -21 -9 -19 0 -41 4 -49 9
-10 6 -3 9 21 9 19 0 41 -4 49 -9z m59 -9 c0 -5 -9 -10 -20 -10 -11 0 -20 5
-20 10 0 6 9 10 20 10 11 0 20 -4 20 -10z m-326 -52 c-93 -101 -120 -128 -128
-128 -4 0 29 41 74 90 46 50 85 88 88 86 2 -3 -13 -24 -34 -48z m-479 -10 c-1
-18 -2 -96 -3 -173 l-2 -140 -39 -42 c-21 -23 -36 -45 -33 -48 3 -3 0 -5 -6
-5 -8 0 -12 22 -12 64 0 61 -14 96 -40 96 -14 0 -20 29 -11 53 5 12 21 36 35
52 15 17 43 64 64 106 20 42 40 75 43 73 3 -2 5 -18 4 -36z m685 11 c0 -17 -4
-28 -10 -24 -5 3 -10 17 -10 31 0 13 5 24 10 24 6 0 10 -14 10 -31z m523 -1
c3 -8 -5 -14 -19 -14 -24 -2 -31 6 -17 19 11 11 30 8 36 -5z m-195 -158 c2
-77 -1 -120 -8 -120 -6 0 -10 48 -10 133 0 163 15 152 18 -13z m168 12 c5 -66
4 -92 -5 -92 -6 0 -11 17 -12 43 0 23 -2 69 -5 102 -4 43 -3 57 5 50 6 -6 14
-52 17 -103z m110 72 c1 -10 5 -48 9 -84 5 -45 4 -62 -3 -55 -6 6 -13 27 -15
47 -2 21 -7 41 -10 45 -13 12 -8 75 6 71 6 -3 13 -13 13 -24z m94 -35 c0 -6
-4 -7 -10 -4 -5 3 -10 11 -10 16 0 6 5 7 10 4 6 -3 10 -11 10 -16z m-240 -175
c0 -2 -9 0 -20 6 -11 6 -20 13 -20 16 0 2 9 0 20 -6 11 -6 20 -13 20 -16z
m178 -7 c2 -10 -3 -17 -12 -17 -10 0 -16 9 -16 21 0 24 23 21 28 -4z m-1911
-13 c-3 -3 -12 -4 -19 -1 -8 3 -5 6 6 6 11 1 17 -2 13 -5z m184 -19 c77 -9
148 -14 157 -11 9 3 31 2 47 -3 29 -9 28 -9 -15 -11 -25 -1 -54 -3 -65 -6 -31
-6 -219 16 -226 27 -3 5 -13 7 -22 4 -9 -4 -24 -2 -34 4 -17 10 -17 10 0 11
10 0 81 -7 158 -15z m-236 -36 c9 -17 14 -33 11 -36 -3 -3 -10 5 -16 18 -8 18
-9 -2 -5 -76 3 -55 1 -125 -4 -155 -7 -43 -9 -20 -9 113 0 92 2 167 4 167 2 0
11 -14 19 -31z m797 25 c21 -4 35 -10 32 -15 -3 -5 8 -6 24 -3 18 4 41 0 58
-9 29 -16 29 -16 -26 -14 -51 2 -55 0 -58 -21 -3 -21 -1 -23 20 -16 19 6 21 5
11 -8 -10 -11 -10 -17 -1 -26 9 -9 8 -12 -3 -12 -8 0 -25 14 -37 30 -13 17
-18 30 -13 30 6 0 8 7 5 15 -4 8 -10 15 -16 15 -5 0 -6 -5 -2 -11 11 -18 -29
7 -48 30 -17 20 -17 21 0 21 9 0 34 -3 54 -6z m870 -121 c3 -124 -3 -191 -14
-162 -5 13 -12 238 -9 272 1 4 5 7 10 7 6 0 11 -53 13 -117z m295 70 c-3 -10
-5 -2 -5 17 0 19 2 27 5 18 2 -10 2 -26 0 -35z m300 25 c-3 -8 -6 -5 -6 6 -1
11 2 17 5 13 3 -3 4 -12 1 -19z m-2075 -98 c11 0 119 -112 114 -117 -5 -6
-226 208 -226 218 0 4 24 -17 52 -47 29 -30 56 -54 60 -54z m1172 75 c3 -8 1
-15 -4 -15 -6 0 -10 7 -10 15 0 8 2 15 4 15 2 0 6 -7 10 -15z m-604 -26 c0 -6
11 -20 25 -31 26 -20 33 -38 15 -38 -5 0 -10 7 -10 15 0 9 -6 18 -13 21 -8 3
-24 19 -36 35 -22 30 -22 30 -2 19 12 -6 21 -16 21 -21z m241 21 c5 0 4 -6 -3
-14 -15 -16 -38 -10 -38 11 0 10 6 13 16 9 9 -3 20 -6 25 -6z m304 -11 c0 -11
-16 -14 -67 -15 -38 0 -68 3 -68 8 0 4 21 5 48 3 35 -4 42 -3 27 5 -15 7 -11
8 20 4 31 -4 37 -3 25 6 -13 10 -13 11 0 7 8 -2 15 -10 15 -18z m35 17 c0 -3
-4 -8 -10 -11 -5 -3 -10 -1 -10 4 0 6 5 11 10 11 6 0 10 -2 10 -4z m-700 -33
c0 -50 -14 -93 -29 -94 -10 0 -11 -2 -3 -6 17 -7 15 -33 -4 -33 -8 0 -12 5 -9
10 3 6 -1 13 -9 16 -24 9 -19 47 12 87 30 40 42 46 42 20z m404 8 c3 -5 -1
-11 -9 -15 -9 -3 -15 0 -15 9 0 16 16 20 24 6z m-914 -80 c0 -7 5 -9 12 -5 7
4 8 3 4 -4 -4 -7 -3 -12 2 -12 6 0 15 -14 21 -30 5 -17 17 -38 26 -46 9 -9 13
-19 10 -22 -3 -3 -7 -3 -9 -1 -8 10 -126 192 -126 196 0 2 14 -12 30 -30 17
-19 30 -40 30 -46z m997 48 c6 -21 6 -21 20 2 12 21 13 22 8 3 -4 -17 1 -24
25 -34 46 -19 31 -21 -25 -4 -47 14 -88 13 -152 -3 -14 -3 -23 -1 -23 6 0 6 9
11 20 11 11 0 20 5 20 11 0 6 9 8 21 4 26 -9 72 2 64 15 -3 6 -1 10 5 10 7 0
14 -10 17 -21z m90 -5 c-3 -3 -12 -4 -19 -1 -8 3 -5 6 6 6 11 1 17 -2 13 -5z
m-266 -48 c-22 -10 -29 -50 -11 -61 6 -4 8 -16 4 -27 -3 -12 -1 -24 6 -28 7
-4 11 -13 8 -21 -2 -7 -19 12 -37 41 -27 44 -31 57 -22 72 7 11 7 18 1 18 -5
0 -10 -4 -10 -9 0 -5 -9 -7 -20 -4 -11 3 -17 9 -14 14 3 5 -2 6 -11 2 -9 -3
-13 -9 -8 -12 4 -3 19 -26 32 -51 20 -37 21 -42 6 -30 -17 14 -18 13 -12 -3 4
-11 3 -16 -4 -12 -5 4 -7 16 -3 27 4 13 2 18 -4 14 -15 -9 -41 31 -35 54 5 19
47 35 63 25 6 -4 10 -2 10 4 0 15 32 19 59 7 23 -10 23 -10 2 -20z m-857 -52
c40 -85 40 -84 26 -84 -5 0 -10 9 -10 19 0 11 -4 22 -9 25 -5 3 -12 18 -16 33
-3 15 -12 34 -18 41 -11 14 -19 42 -12 42 2 0 20 -34 39 -76z m2476 46 c0 -5
-2 -10 -4 -10 -3 0 -8 5 -11 10 -3 6 -1 10 4 10 6 0 11 -4 11 -10z m-1790 -20
c0 -5 -7 -10 -15 -10 -8 0 -15 5 -15 10 0 6 7 10 15 10 8 0 15 -4 15 -10z
m-200 -29 c0 -5 -7 -12 -16 -15 -14 -5 -15 -4 -4 9 14 17 20 19 20 6z m-50
-21 c0 -9 -9 -11 -62 -15 -9 0 -20 -4 -24 -8 -4 -4 -19 -7 -32 -7 -32 0 -24 8
25 25 45 17 93 19 93 5z m-170 -25 c0 -2 -9 -9 -20 -15 -22 -12 -44 -5 -35 11
6 9 55 13 55 4z m560 -59 c-1 -6 -7 0 -15 14 -8 14 -14 19 -15 11 0 -8 -3 -12
-6 -8 -3 3 -3 11 2 18 5 9 11 7 21 -6 7 -11 13 -24 13 -29z m-663 28 c-3 -3
-12 -4 -19 -1 -8 3 -5 6 6 6 11 1 17 -2 13 -5z m-113 -22 c3 -5 -1 -9 -9 -9
-8 0 -15 4 -15 9 0 4 4 8 9 8 6 0 12 -4 15 -8z m-44 -12 c0 -5 -6 -10 -12 -10
-7 0 -23 -3 -35 -6 -13 -4 -23 -2 -23 4 0 9 20 17 58 21 6 0 12 -3 12 -9z
m890 -22 c7 -18 24 -56 37 -84 13 -27 25 -64 27 -81 3 -17 9 -40 15 -51 13
-25 14 -45 2 -38 -5 3 -12 18 -16 33 -3 16 -12 42 -19 58 -7 17 -25 62 -41
100 -15 39 -29 76 -32 83 -3 6 -1 12 5 12 5 0 15 -15 22 -32z m-980 2 c0 -5
-4 -10 -10 -10 -5 0 -10 5 -10 10 0 6 5 10 10 10 6 0 10 -4 10 -10z m920 0 c0
-5 -5 -10 -11 -10 -5 0 -7 5 -4 10 3 6 8 10 11 10 2 0 4 -4 4 -10z m-1035 -20
c-27 -12 -43 -12 -25 0 8 5 22 9 30 9 10 0 8 -3 -5 -9z m1772 -27 c-3 -10 -5
-4 -5 12 0 17 2 24 5 18 2 -7 2 -21 0 -30z m-683 -88 c14 -44 31 -95 37 -113
11 -34 6 -54 -9 -36 -15 16 -41 114 -36 129 4 8 -1 17 -9 20 -9 4 -14 20 -14
46 0 22 1 38 2 37 1 -2 14 -39 29 -83z m-205 -84 c7 -5 11 -13 8 -18 -4 -6 4
-8 20 -5 20 4 24 2 18 -8 -6 -10 -4 -12 8 -7 19 7 98 -25 117 -48 10 -12 10
-19 2 -27 -9 -9 -21 -7 -49 8 -21 10 -40 22 -43 26 -3 3 -19 10 -35 14 -55 14
-115 45 -115 59 0 17 46 20 69 6z m338 -75 c-9 -7 -17 -24 -17 -37 l0 -24 -13
25 c-12 23 -11 26 13 41 29 19 44 14 17 -5z m-369 -37 c39 -46 65 -89 55 -89
-8 0 -61 66 -86 107 -15 24 4 13 31 -18z m297 4 c4 -10 11 -35 15 -56 12 -59
-13 -40 -26 21 -11 50 -4 71 11 35z m3772 -55 c0 -40 -5 -80 -11 -89 -10 -15
-18 -13 -79 17 -38 18 -86 38 -109 44 -22 6 -37 14 -34 17 9 9 109 43 113 39
3 -2 30 7 61 20 31 13 58 23 58 24 1 0 1 -33 1 -72z m-3959 43 c23 -9 40 -20
36 -24 -11 -11 -54 -8 -54 3 0 6 -5 10 -12 10 -6 0 -4 -8 6 -19 10 -11 13 -22
8 -25 -9 -5 -62 54 -62 68 0 11 35 5 78 -13z m1942 -41 c41 -12 90 -24 108
-27 30 -5 36 -12 68 -82 20 -42 44 -94 55 -117 10 -23 19 -45 19 -50 0 -5 25
-58 55 -119 55 -110 64 -139 45 -150 -18 -11 -11 -23 18 -30 21 -5 32 -17 51
-63 13 -31 39 -92 58 -135 33 -76 34 -80 22 -130 -7 -29 -19 -65 -26 -80 -16
-31 -10 -47 16 -47 15 0 20 11 25 60 4 33 11 60 16 60 5 0 17 -26 27 -57 10
-32 28 -73 40 -91 12 -19 32 -59 43 -90 12 -31 30 -73 40 -92 10 -19 21 -45
23 -57 5 -22 3 -22 -54 -18 -49 4 -59 2 -59 -11 0 -9 -13 -49 -30 -91 -16 -41
-30 -78 -30 -82 0 -11 106 -35 124 -28 9 4 16 13 16 21 0 11 -9 13 -38 9 -46
-6 -66 12 -56 51 7 31 12 32 30 9 14 -20 18 -18 29 16 7 22 5 23 -20 17 -24
-6 -26 -5 -20 16 13 42 57 63 69 32 4 -11 16 -14 38 -12 28 3 33 -1 39 -26 6
-22 2 -42 -16 -81 -23 -49 -31 -75 -21 -75 2 0 11 -3 19 -6 10 -3 17 3 21 20
3 14 13 26 21 26 9 0 12 6 8 18 -5 14 -3 13 10 -3 9 -11 17 -39 17 -61 0 -27
5 -44 14 -47 8 -3 22 -22 32 -42 16 -34 16 -36 -2 -50 -24 -18 -89 -20 -78 -3
5 8 2 9 -10 5 -9 -4 -14 -3 -11 2 3 5 1 12 -5 16 -5 3 -10 1 -10 -4 0 -17 -27
-13 -34 5 -4 10 -13 13 -25 9 -16 -5 -96 12 -141 29 -26 10 -251 48 -333 56
-42 4 -79 9 -81 11 -2 2 0 24 4 49 5 25 9 72 10 105 0 33 6 86 14 118 7 31 13
58 12 58 0 1 -41 2 -91 4 l-90 2 -7 34 c-4 19 -10 97 -13 174 -5 135 -18 294
-31 374 -6 35 -4 39 20 45 28 7 56 51 56 88 0 13 9 67 20 121 11 55 20 101 20
103 0 2 -13 1 -30 -2 -16 -4 -50 0 -74 7 -51 15 -48 7 -61 169 -4 41 -9 92
-11 113 l-5 39 33 -5 c18 -3 67 -15 108 -27z m-1681 -25 c0 -5 -4 -3 -9 5 -5
8 -9 22 -9 30 0 16 17 -16 18 -35z m-149 10 c-7 -8 -20 -15 -29 -15 -13 1 -13
3 3 15 26 19 42 19 26 0z m1665 -100 c16 -113 16 -125 2 -119 -17 6 -27 72
-26 158 1 57 2 59 10 26 6 -19 12 -48 14 -65z m1967 76 c24 -10 73 -33 110
-50 37 -18 77 -33 88 -34 15 -1 20 -8 20 -32 0 -20 -3 -26 -9 -17 -6 10 -10 8
-14 -8 -3 -13 0 -23 8 -26 11 -5 10 -13 -7 -42 -18 -32 -25 -60 -27 -101 -1
-24 -23 3 -41 52 -12 32 -21 41 -36 39 -27 -5 -28 -8 -13 -44 7 -17 13 -43 13
-57 1 -14 6 -25 12 -24 7 1 10 -6 7 -20 -3 -15 -2 -18 4 -9 7 9 13 6 22 -14
12 -27 4 -43 -21 -44 -5 0 -8 -15 -7 -32 0 -29 1 -30 9 -12 13 33 30 39 30 10
0 -13 4 -26 9 -28 18 -7 -1 -69 -25 -80 -13 -6 -24 -17 -24 -23 0 -16 25 -37
33 -28 4 3 13 0 21 -6 12 -10 13 -19 5 -39 -7 -18 -7 -33 2 -48 8 -17 8 -26
-1 -40 -9 -15 -10 -15 -6 -2 2 9 -2 22 -9 28 -8 7 -12 16 -9 21 3 5 -2 9 -11
9 -8 0 -18 -6 -21 -14 -3 -9 -12 -12 -21 -9 -11 4 -14 2 -9 -5 9 -15 -17 -16
-62 -3 -31 9 -32 9 -32 -20 0 -20 5 -29 16 -29 12 0 15 -6 10 -22 -4 -13 -10
-39 -13 -58 -3 -19 -13 -45 -21 -57 -12 -20 -12 -23 1 -29 9 -3 26 -4 39 -2
19 2 23 8 20 36 -2 18 1 32 7 32 6 0 10 -16 9 -35 -1 -19 2 -38 5 -42 4 -3 8
16 8 43 2 48 2 48 8 11 6 -38 41 -69 69 -59 15 5 16 32 1 32 -5 0 -7 5 -4 10
13 21 34 9 38 -22 2 -18 5 1 6 42 1 80 14 122 23 76 3 -14 1 -23 -3 -20 -5 3
-9 -27 -9 -66 0 -45 4 -69 10 -65 15 9 12 -4 -5 -21 -8 -9 -15 -12 -15 -7 0 4
-7 0 -15 -11 -8 -11 -12 -30 -8 -47 4 -22 2 -29 -10 -29 -18 0 -30 -27 -16
-36 5 -3 17 0 25 7 20 16 34 -3 34 -46 0 -22 -3 -26 -9 -16 -6 9 -28 15 -59
15 -42 1 -56 7 -97 41 -56 47 -168 156 -163 159 2 1 15 7 31 14 17 7 27 19 27
32 0 21 -24 28 -35 10 -3 -5 -22 -10 -42 -10 l-36 0 7 90 7 90 -25 0 c-27 0
-42 -15 -26 -25 5 -3 10 -33 10 -67 l0 -60 -37 32 c-58 50 -177 158 -245 222
-49 46 -58 59 -45 64 19 7 22 29 6 40 -7 4 -16 -1 -21 -10 -13 -23 -24 -20
-63 16 -28 25 -35 39 -35 70 0 31 -4 38 -19 38 -11 0 -21 -6 -23 -14 -2 -9
-30 13 -75 58 l-73 73 63 40 c52 33 129 73 262 134 21 10 396 133 430 142 35
8 42 7 87 -12z m-3879 -11 c3 -11 1 -18 -4 -14 -5 3 -9 12 -9 20 0 20 7 17 13
-6z m117 1 c0 -5 -7 -11 -15 -15 -15 -5 -20 5 -8 17 9 10 23 9 23 -2z m-40
-11 c0 -5 -2 -10 -4 -10 -3 0 -8 5 -11 10 -3 6 -1 10 4 10 6 0 11 -4 11 -10z
m95 -23 c10 -17 25 -43 32 -57 8 -14 20 -36 28 -50 8 -14 15 -33 15 -43 0 -10
4 -16 8 -13 10 6 36 -94 27 -102 -3 -3 -5 0 -5 6 0 7 -13 41 -30 75 -16 35
-30 67 -30 70 0 4 -18 36 -40 72 -22 36 -40 68 -40 70 0 15 17 1 35 -28z
m2178 17 c169 -52 221 -71 305 -113 121 -60 132 -66 229 -130 l82 -54 5 -51
c2 -28 4 -79 3 -113 -2 -65 0 -63 -46 -54 -2 1 2 8 9 16 11 13 10 18 -6 30
-27 21 -56 14 -71 -15 -10 -21 -9 -29 8 -57 11 -18 18 -37 14 -43 -9 -15 -33
-12 -43 6 -12 22 -35 8 -29 -17 3 -10 0 -20 -7 -22 -6 -3 15 -3 47 -2 31 2 57
-1 57 -6 0 -5 -4 -9 -10 -9 -16 0 -11 -32 7 -45 9 -7 23 -28 29 -46 9 -25 13
-28 13 -13 1 11 7 21 14 21 10 0 14 -22 15 -79 1 -71 0 -78 -18 -78 -11 0 -28
-10 -40 -22 -11 -12 -20 -18 -20 -12 0 5 -6 -2 -13 -15 -6 -13 -22 -31 -34
-39 -23 -14 -23 -14 -24 39 -1 30 -2 63 -3 74 -1 13 -9 21 -24 23 -23 3 -23 2
-17 -45 11 -78 25 -156 29 -160 2 -3 31 12 63 33 32 21 64 37 71 36 7 -2 16 7
22 20 7 19 9 13 11 -32 4 -95 0 -201 -10 -236 -6 -20 -6 -34 0 -34 5 0 8 -11
7 -25 -2 -20 -9 -26 -38 -30 -19 -3 -47 -8 -61 -10 -28 -4 -27 -6 -98 148 -23
48 -41 92 -41 97 0 5 -9 25 -21 44 -23 39 -23 32 21 178 7 21 5 27 -8 30 -14
3 -19 -9 -27 -57 -5 -33 -14 -60 -19 -60 -9 0 -43 86 -52 129 -2 11 -8 22 -13
25 -10 7 -58 106 -96 202 -22 54 -22 56 -4 68 25 15 24 61 -1 94 -28 35 -27
69 3 65 12 -2 24 2 27 7 3 6 -11 11 -30 13 -24 3 -38 -2 -47 -14 -20 -27 -16
-39 22 -80 40 -42 42 -50 16 -64 -17 -9 -22 -4 -37 38 -10 26 -28 66 -40 90
-12 23 -28 59 -35 80 -7 20 -36 88 -65 151 -30 62 -52 117 -49 121 3 5 -1 11
-7 13 -31 13 28 5 75 -9z m-2215 -42 c21 -42 32 -72 27 -72 -4 0 -65 89 -65
96 0 16 27 -1 38 -24z m-82 -68 l5 -39 -15 40 c-18 47 -20 63 -6 49 6 -6 13
-28 16 -50z m-136 11 c0 -2 -10 -9 -22 -15 -22 -11 -22 -10 -4 4 21 17 26 19
26 11z m2005 -85 c4 -6 11 -8 16 -5 11 7 25 -23 15 -33 -4 -3 -11 0 -17 8 -6
10 -7 -11 -3 -60 3 -41 7 -97 9 -125 2 -36 -1 -52 -12 -60 -15 -11 -28 -69
-13 -60 12 8 43 -33 46 -63 3 -34 21 -210 28 -277 3 -27 6 -62 6 -77 0 -15 4
-30 10 -33 6 -4 8 -25 4 -54 -3 -27 -2 -51 3 -54 9 -6 8 -231 -2 -247 -3 -6
-1 -10 4 -10 6 0 11 -17 10 -37 -1 -34 -2 -35 -9 -13 -9 29 -14 16 -19 -47 -1
-16 -7 -23 -21 -23 -11 0 -20 -5 -20 -11 0 -5 -4 -8 -9 -5 -20 13 -40 289 -22
300 6 4 11 12 11 17 0 6 -4 7 -10 4 -5 -3 -10 -2 -10 4 0 5 6 11 13 14 9 3 9
10 -2 28 -14 24 -20 161 -29 737 -3 178 2 216 23 182z m32 -97 c-3 -10 -5 -2
-5 17 0 19 2 27 5 18 2 -10 2 -26 0 -35z m123 14 c0 -4 -6 -38 -14 -75 -8 -37
-17 -83 -20 -103 -6 -37 -30 -78 -40 -69 -3 3 -8 35 -11 70 -3 36 -8 93 -11
128 l-6 62 51 -2 c28 -1 51 -6 51 -11z m950 -53 c0 -8 4 -14 9 -14 5 0 37 -28
72 -63 35 -35 72 -68 83 -74 11 -6 21 -28 27 -58 10 -51 19 -68 26 -47 9 25
42 11 98 -43 31 -30 59 -55 61 -55 3 0 16 -11 30 -25 14 -14 32 -25 40 -25 8
0 12 -4 9 -10 -3 -5 -14 -10 -24 -10 -11 0 -28 -8 -39 -17 -17 -16 -19 -26
-13 -102 4 -54 11 -86 19 -89 8 -2 12 9 12 37 0 23 4 41 9 41 5 0 22 -16 38
-37 23 -28 34 -35 49 -29 17 7 15 11 -22 45 l-40 38 32 32 31 32 62 -63 c33
-35 61 -69 61 -76 0 -7 4 -10 10 -7 9 6 58 -29 119 -85 15 -14 55 -49 89 -79
l62 -55 0 -102 c0 -122 -9 -130 -82 -75 -50 38 -55 52 -20 61 58 14 80 72 42
110 -21 21 -84 28 -95 10 -3 -5 -17 -10 -31 -10 l-25 0 4 -107 c2 -60 6 -109
10 -110 4 -2 17 -3 28 -3 22 0 22 4 3 70 -6 21 1 17 44 -23 30 -30 60 -50 75
-50 33 -2 20 -18 -36 -46 -43 -21 -48 -28 -27 -41 18 -11 -36 -28 -110 -34
-57 -5 -152 -23 -295 -55 -28 -7 -42 -6 -47 2 -4 7 -8 7 -8 2 0 -15 -126 -64
-207 -80 -18 -4 -50 -15 -72 -26 -52 -25 -61 -24 -61 6 0 14 -4 25 -8 25 -12
0 1 80 18 110 8 14 13 35 11 48 -1 13 3 22 11 23 7 0 3 4 -9 9 -28 11 -29 30
-3 63 l20 25 -23 6 c-17 4 -22 13 -23 41 0 23 4 35 13 35 8 0 12 4 8 9 -3 6 2
14 12 19 15 9 15 12 3 27 -11 13 -11 18 -1 24 16 10 11 96 -6 97 -7 1 -20 2
-28 3 -8 0 -15 10 -15 22 0 14 5 19 14 16 21 -8 28 4 10 17 -16 12 -30 81 -14
71 14 -9 12 39 -1 52 -6 6 -8 17 -3 24 15 25 15 69 -1 69 -9 0 -12 6 -9 15 5
11 10 13 19 5 17 -14 29 3 20 30 -5 16 -2 20 14 20 27 0 27 16 1 23 -11 3 -20
12 -20 21 0 18 26 22 32 4 2 -6 9 -8 15 -5 8 5 4 27 -12 72 -14 37 -20 67 -14
70 5 4 9 1 9 -4 0 -6 4 -11 9 -11 5 0 7 9 4 20 -7 27 -29 25 -49 -5 -9 -14
-20 -25 -25 -25 -10 0 -13 283 -3 293 10 9 24 -2 24 -19z m1055 -145 c11 -16
1 -19 -13 -3 -7 8 -8 14 -3 14 5 0 13 -5 16 -11z m-1170 -37 c0 -11 35 -82 41
-82 2 0 2 12 -1 28 -3 15 -2 20 1 12 4 -8 12 -18 18 -22 8 -5 7 -11 -1 -19 -7
-7 -10 -25 -7 -43 4 -24 3 -28 -5 -16 -6 8 -11 23 -11 33 0 10 -11 35 -25 55
-22 33 -36 87 -17 68 4 -4 7 -11 7 -14z m1172 -234 c-2 -13 -4 -3 -4 22 0 25
2 35 4 23 2 -13 2 -33 0 -45z m-132 -48 c-3 -6 -10 -10 -16 -10 -10 0 -12 33
-2 44 9 9 26 -22 18 -34z m55 13 c-1 -24 -2 -26 -11 -10 -5 9 -7 22 -4 27 10
17 15 11 15 -17z m30 7 c0 -5 -4 -10 -10 -10 -5 0 -10 5 -10 10 0 6 5 10 10
10 6 0 10 -4 10 -10z m-537 -6 c17 -18 -42 -82 -63 -69 -10 6 -7 46 5 65 7 11
48 14 58 4z m557 -82 c0 -21 -2 -22 -15 -8 -8 8 -15 23 -16 33 -1 13 -3 11 -9
-7 l-8 -25 -1 27 c-1 14 5 28 12 31 16 5 36 -22 37 -51z m37 -69 c-3 -10 -5
-4 -5 12 0 17 2 24 5 18 2 -7 2 -21 0 -30z m0 -85 c-3 -8 -6 -5 -6 6 -1 11 2
17 5 13 3 -3 4 -12 1 -19z m0 -90 c-3 -7 -5 -2 -5 12 0 14 2 19 5 13 2 -7 2
-19 0 -25z m-1057 -38 c0 -16 -4 -30 -10 -30 -5 0 -10 14 -10 30 0 17 5 30 10
30 6 0 10 -13 10 -30z m808 -42 c13 -13 16 -47 4 -65 -4 -6 -24 -14 -45 -18
l-37 -7 0 44 c0 25 3 48 7 51 11 11 58 8 71 -5z m-1652 -26 c-3 -5 -10 -60
-17 -123 -11 -115 -27 -159 -55 -159 -8 0 -13 4 -9 9 3 6 -3 15 -14 21 -22 11
-28 36 -35 156 l-5 80 32 11 c39 13 110 16 103 5z m1812 -15 c9 -6 9 -13 2
-28 -16 -30 -40 -24 -40 10 0 29 11 34 38 18z m-2 -93 c18 -15 18 -15 -2 -5
-12 6 -24 7 -28 4 -3 -3 -6 -1 -6 5 0 16 12 15 36 -4z m-1026 -10 c0 -14 -3
-14 -15 -4 -8 7 -15 14 -15 16 0 2 7 4 15 4 8 0 15 -7 15 -16z m-50 -19 c10
-13 10 -19 -5 -35 -22 -25 -42 -26 -47 -2 -10 46 24 71 52 37z m1090 -25 c0
-5 -4 -10 -9 -10 -6 0 -13 5 -16 10 -3 6 1 10 9 10 9 0 16 -4 16 -10z m-1076
-55 c-4 -8 -12 -15 -20 -15 -20 0 -17 18 4 23 9 3 18 5 19 6 1 0 0 -6 -3 -14z
m1070 0 c3 -8 3 -15 0 -15 -3 0 -12 7 -20 15 -13 13 -13 15 -1 15 8 0 17 -7
21 -15z m-1066 -42 c-5 -25 -28 -28 -28 -4 0 12 6 21 16 21 9 0 14 -7 12 -17z
m-908 -17 c0 -19 -5 -24 -21 -23 -19 1 -19 2 -3 14 10 7 14 13 10 13 -4 0 -4
5 -1 10 10 16 15 12 15 -14z m937 -42 c3 -8 1 -20 -6 -27 -8 -8 -11 -8 -11 0
0 6 -3 18 -6 27 -3 9 -1 16 5 16 7 0 14 -7 18 -16z"/>
<path d="M2238 4253 c7 -3 16 -2 19 1 4 3 -2 6 -13 5 -11 0 -14 -3 -6 -6z"/>
<path d="M1810 3679 c0 -5 5 -7 10 -4 6 3 10 8 10 11 0 2 -4 4 -10 4 -5 0 -10
-5 -10 -11z"/>
<path d="M4120 2773 c0 -16 -7 -46 -15 -68 -8 -22 -14 -54 -15 -70 0 -27 5
-32 40 -43 52 -16 90 -15 90 1 0 22 -10 26 -42 15 -24 -8 -32 -8 -40 3 -11 17
-1 148 13 165 13 16 69 -2 69 -22 0 -17 26 -19 36 -2 13 21 -35 48 -87 48 -47
0 -49 -1 -49 -27z"/>
<path d="M4152 2694 c4 -21 22 -23 26 -1 2 10 -3 17 -13 17 -10 0 -15 -6 -13
-16z"/>
<path d="M4000 2319 c0 -6 24 -53 53 -105 65 -118 74 -119 131 -8 22 45 47 88
54 96 10 13 9 16 -7 21 -24 6 -31 0 -31 -25 0 -10 -14 -48 -32 -84 -25 -52
-34 -62 -44 -52 -18 19 -74 133 -74 152 0 10 -9 16 -25 16 -14 0 -25 -5 -25
-11z"/>
<path d="M4286 2256 c-9 -26 -16 -70 -16 -97 0 -41 3 -49 18 -49 10 0 23 -5
29 -11 6 -6 28 -9 49 -7 32 2 40 7 42 26 3 21 1 22 -17 13 -45 -24 -92 0 -83
44 4 25 32 36 32 13 1 -14 30 20 30 35 0 5 -13 6 -30 2 -26 -6 -29 -4 -23 12
17 49 58 58 93 21 18 -19 22 -20 30 -8 13 21 12 26 -7 41 -9 8 -40 14 -74 14
l-58 0 -15 -49z"/>
<path d="M4263 1873 c-22 -4 -27 -25 -48 -173 l-7 -45 44 -1 c24 0 56 -4 71
-8 20 -5 29 -2 37 15 13 24 5 38 -12 21 -15 -15 -61 -15 -76 0 -7 7 -12 27
-12 45 0 30 2 33 19 24 15 -8 20 -7 25 5 9 22 -1 33 -24 27 -23 -6 -23 -6 -9
36 9 26 16 32 37 29 14 -2 30 -12 36 -23 6 -11 12 -22 13 -24 5 -9 33 22 33
37 0 34 -55 49 -127 35z"/>
<path d="M4437 1863 c-4 -3 -7 -15 -7 -25 0 -13 7 -18 25 -18 14 0 25 -6 25
-12 0 -30 -13 -58 -26 -58 -11 0 -12 -4 -3 -19 10 -14 9 -23 -4 -42 -24 -34
-21 -46 13 -51 29 -4 30 -4 30 39 0 25 5 43 11 43 6 0 9 7 5 15 -6 18 12 75
25 75 5 0 12 -7 15 -15 8 -20 20 -19 28 3 3 9 9 23 12 30 4 8 -5 12 -28 12
-18 1 -51 7 -73 15 -22 8 -40 15 -41 15 0 0 -4 -3 -7 -7z"/>
<path d="M4830 1420 c0 -5 4 -10 9 -10 6 0 13 5 16 10 3 6 -1 10 -9 10 -9 0
-16 -4 -16 -10z"/>
<path d="M5790 2826 c-39 -15 -40 -23 -26 -138 l7 -57 49 3 c57 4 70 11 70 37
0 23 -6 24 -26 4 -9 -8 -26 -15 -40 -15 -20 0 -24 5 -24 31 0 26 3 29 20 24
16 -5 20 -2 20 15 0 18 -5 21 -25 18 -21 -4 -25 -1 -25 18 0 21 5 24 34 24 35
0 63 21 51 40 -8 13 -41 12 -85 -4z"/>
<path d="M5625 2792 c-22 -8 -42 -17 -43 -18 -2 -1 4 -28 13 -59 9 -32 22 -87
28 -124 10 -56 15 -66 35 -69 26 -4 28 9 7 68 -21 58 -19 74 5 67 14 -4 20 0
20 13 0 21 -25 44 -38 36 -6 -3 -13 6 -17 21 -8 33 9 45 51 38 37 -6 69 20 43
36 -20 13 -58 10 -104 -9z"/>
<path d="M5327 2704 c-20 -11 -27 -20 -22 -32 4 -9 11 -44 16 -77 6 -33 13
-63 17 -67 11 -11 103 13 109 28 9 24 -6 29 -35 12 -15 -8 -33 -13 -39 -11
-15 5 -18 53 -3 53 6 0 10 7 10 15 0 10 -7 15 -17 13 -13 -2 -18 4 -18 22 0
21 5 25 30 27 17 0 36 2 43 2 6 1 12 8 12 16 0 20 -65 19 -103 -1z"/>
<path d="M4537 2693 c-5 -10 9 -182 15 -189 3 -2 38 28 79 66 60 57 71 72 59
80 -25 16 -35 12 -54 -24 -10 -19 -29 -45 -42 -57 l-24 -22 0 76 c0 60 -3 77
-14 77 -8 0 -17 -3 -19 -7z"/>
<path d="M4726 2604 c-4 -19 -19 -56 -33 -81 -20 -37 -22 -47 -12 -54 22 -14
26 -11 39 24 24 61 54 117 62 117 4 0 8 5 8 11 0 6 -7 9 -15 6 -8 -4 -17 -2
-20 3 -12 19 -23 9 -29 -26z"/>
<path d="M4828 2303 c-3 -10 -2 -27 2 -38 7 -19 7 -19 14 2 4 13 3 30 -2 39
-8 15 -10 14 -14 -3z"/>
<path d="M4838 2195 c-6 -49 -5 -50 21 -33 13 8 21 23 20 38 0 23 -1 23 -9 5
-8 -19 -8 -19 -18 5 -9 24 -10 23 -14 -15z"/>
<path d="M4820 2020 c-8 -5 -11 -12 -8 -16 10 -9 38 3 38 16 0 12 -10 13 -30
0z"/>
<path d="M5288 2273 c-12 -3 -16 -15 -16 -48 0 -24 -8 -55 -18 -70 l-18 -27
-30 55 c-29 51 -33 55 -69 55 -25 1 -45 -6 -58 -19 -29 -29 -24 -53 19 -75 46
-25 52 -59 9 -59 -22 1 -27 -3 -25 -20 4 -29 40 -30 66 -2 28 30 22 69 -14 86
-29 13 -31 31 -5 53 18 16 21 15 43 -20 13 -20 32 -54 43 -74 23 -44 26 -45
43 -17 11 18 72 174 72 185 0 5 -18 4 -42 -3z"/>
<path d="M5492 1867 c-27 -8 -32 -14 -28 -31 3 -12 8 -58 12 -103 7 -79 8 -83
31 -83 19 0 23 4 19 18 -3 9 -8 30 -12 46 l-7 30 29 -21 c16 -12 38 -30 48
-42 20 -22 56 -29 56 -10 0 14 -38 47 -69 60 -19 8 -21 12 -11 24 7 8 18 15
25 15 18 0 45 34 45 58 0 48 -59 65 -138 39z m93 -38 c8 -25 -16 -55 -50 -61
-28 -6 -34 5 -28 50 5 29 9 32 38 32 25 0 35 -5 40 -21z"/>
<path d="M5331 1834 c-19 -8 -41 -12 -49 -9 -16 6 -13 -32 11 -140 11 -50 16
-59 33 -57 10 2 39 7 64 10 37 6 46 11 48 30 2 15 -2 22 -12 22 -9 0 -16 -4
-16 -9 0 -5 -14 -14 -32 -20 -24 -9 -34 -8 -40 1 -15 24 -9 56 12 61 14 4 18
10 14 22 -5 12 -14 15 -30 11 -21 -6 -24 -3 -24 20 0 24 3 25 42 23 31 -3 44
1 52 14 8 13 8 20 -4 27 -20 13 -29 12 -69 -6z"/>
<path d="M5195 1810 c-3 -5 -28 -12 -56 -16 -44 -6 -50 -9 -47 -28 2 -15 9
-20 25 -18 20 3 37 -21 32 -44 -1 -5 3 -22 9 -37 7 -16 12 -39 12 -53 0 -18 5
-24 23 -24 35 0 37 7 17 53 -10 23 -23 61 -28 85 -9 40 -9 42 14 42 17 0 24 6
24 19 0 23 -16 36 -25 21z"/>
<path d="M5521 1534 c0 -11 3 -14 6 -6 3 7 2 16 -1 19 -3 4 -6 -2 -5 -13z"/>
<path d="M5446 1521 c-3 -5 6 -8 19 -8 14 0 28 3 31 8 3 5 -6 9 -20 9 -14 0
-27 -4 -30 -9z"/>
<path d="M5358 1513 c6 -2 18 -2 25 0 6 3 1 5 -13 5 -14 0 -19 -2 -12 -5z"/>
<path d="M5045 1470 c-3 -5 -1 -10 4 -10 6 0 11 5 11 10 0 6 -2 10 -4 10 -3 0
-8 -4 -11 -10z"/>
<path d="M5037 1436 c-6 -15 1 -26 15 -26 4 0 8 9 8 20 0 23 -15 27 -23 6z"/>
<path d="M890 6570 c0 -5 5 -10 10 -10 6 0 10 5 10 10 0 6 -4 10 -10 10 -5 0
-10 -4 -10 -10z"/>
<path d="M5948 5214 c-38 -20 -36 -28 2 -9 17 9 30 18 30 20 0 7 -1 6 -32 -11z"/>
<path d="M913 3443 c-13 -2 -23 -9 -23 -15 0 -6 12 -8 31 -4 17 3 38 6 45 6 8
0 14 5 14 10 0 10 -25 11 -67 3z"/>
<path d="M1127 2554 c3 -8 -1 -14 -11 -14 -9 0 -16 -4 -16 -10 0 -16 15 -12
34 9 15 16 15 19 2 24 -10 4 -13 1 -9 -9z"/>
<path d="M989 2473 c-110 -55 -104 -51 -97 -59 6 -5 198 93 198 102 0 7 -7 5
-101 -43z"/>
</g>
</svg>
